<?xml version="1.0" encoding="UTF-8" standalone="no"?>
<svg
   xmlns:dc="http://purl.org/dc/elements/1.1/"
   xmlns:cc="http://creativecommons.org/ns#"
   xmlns:rdf="http://www.w3.org/1999/02/22-rdf-syntax-ns#"
   xmlns:svg="http://www.w3.org/2000/svg"
   xmlns="http://www.w3.org/2000/svg"
   width="210mm"
   height="297mm"
   viewBox="0 0 210 297"
   version="1.1"
   id="svg8">
  <defs
     id="defs2" />
  <metadata
     id="metadata5">
    <rdf:RDF>
      <cc:Work
         rdf:about="">
        <dc:format>image/svg+xml</dc:format>
        <dc:type
           rdf:resource="http://purl.org/dc/dcmitype/StillImage" />
        <dc:title></dc:title>
      </cc:Work>
    </rdf:RDF>
  </metadata>
  <g
     id="layer1">
    <path
       style="fill:#000000;stroke-width:0.264583"
       d="m 79.999519,173.04064 v -1.4552 h 1.433972 1.433973 l 0.08738,-7.60677 c 0.08361,-7.27809 0.113294,-7.65936 0.687066,-8.82382 0.777815,-1.57856 2.27121,-3.07744 3.765941,-3.77977 1.085531,-0.51006 1.733037,-0.56682 7.335717,-0.64312 l 6.145092,-0.0837 0.0726,-4.26017 0.0726,-4.26017 0.68753,-0.2289 c 0.41361,-0.13771 0.96702,-0.12264 1.38906,0.0378 l 0.70154,0.26672 v 4.23988 4.23988 h 5.65816 c 6.50157,0 7.64755,0.22803 9.54647,1.89952 0.63532,0.55923 1.46278,1.63416 1.83879,2.38871 l 0.68366,1.37192 v 7.62097 7.62097 h 1.5875 1.5875 v 1.4552 1.45521 H 102.35681 79.999519 Z m 38.629171,-6.48229 c 0,-2.76489 -0.0571,-5.02708 -0.12694,-5.02708 -0.0698,0 -0.63536,0.20836 -1.25677,0.46302 -0.73473,0.3011 -1.83229,0.46302 -3.13855,0.46302 -1.81043,0 -2.20904,-0.10168 -4.03826,-1.03015 -1.88011,-0.9543 -2.06411,-0.99887 -2.49887,-0.60542 -1.1171,1.01096 -3.04802,1.60933 -5.23606,1.6226 -1.97587,0.012 -2.29618,-0.0662 -4.170559,-1.01718 -1.880815,-0.95429 -2.064869,-0.99887 -2.499633,-0.60542 -0.847312,0.76681 -2.919749,1.51916 -4.610223,1.67364 -1.289677,0.11785 -2.028102,0.0271 -3.305898,-0.40618 -0.904914,-0.30686 -1.708586,-0.55793 -1.785937,-0.55793 -0.07735,0 -0.140638,2.26219 -0.140638,5.02708 v 5.02709 h 16.404168 16.40417 z m -26.395945,-7.1937 c 0.577405,-0.173 1.620744,-0.82784 2.31853,-1.45521 0.697786,-0.62737 1.531371,-1.14067 1.85241,-1.14067 0.32104,0 1.17635,0.53284 1.90069,1.18408 2.582515,2.3219 5.539865,2.30615 8.153155,-0.0434 0.69778,-0.62737 1.53137,-1.14067 1.85241,-1.14067 0.32104,0 1.17784,0.53418 1.90401,1.18707 1.49259,1.34197 2.95761,1.85422 4.64253,1.62327 1.24266,-0.17032 2.95539,-0.95432 3.48872,-1.59694 0.7609,-0.91683 -0.41287,-2.97955 -2.18315,-3.83652 -1.10709,-0.53594 -1.50669,-0.55188 -13.83271,-0.55188 -12.63725,0 -12.697844,0.003 -13.871103,0.59531 -1.261121,0.6371 -2.373302,2.02871 -2.373302,2.96957 0,0.74414 0.938432,1.61588 2.260708,2.10004 1.30661,0.47842 2.532407,0.51184 3.887102,0.10596 z m 9.106735,-21.0714 c -0.24083,-0.26612 -0.43788,-0.6868 -0.43788,-0.93484 0,-0.48515 1.23994,-3.07922 1.47184,-3.07922 0.189,0 1.43274,2.69263 1.43599,3.10885 0.004,0.49653 -0.98815,1.38906 -1.5439,1.38906 -0.26849,0 -0.68521,-0.21773 -0.92605,-0.48385 z"
       id="path92" />
  </g>
</svg>
