<?xml version="1.0" encoding="UTF-8" standalone="no"?>
<svg
   xmlns:dc="http://purl.org/dc/elements/1.1/"
   xmlns:cc="http://creativecommons.org/ns#"
   xmlns:rdf="http://www.w3.org/1999/02/22-rdf-syntax-ns#"
   xmlns:svg="http://www.w3.org/2000/svg"
   xmlns="http://www.w3.org/2000/svg"
   width="24"
   height="24"
   viewBox="0 0 24 24"
   fill="none"
   version="1.1"
   id="svg273">
  <metadata
     id="metadata279">
    <rdf:RDF>
      <cc:Work
         rdf:about="">
        <dc:format>image/svg+xml</dc:format>
        <dc:type
           rdf:resource="http://purl.org/dc/dcmitype/StillImage" />
        <dc:title></dc:title>
      </cc:Work>
    </rdf:RDF>
  </metadata>
  <defs
     id="defs277" />
  <path
     id="path269"
     d="M3.75 5 C 2.7835 5 2 5.7835 2 6.75 L 2 15.25 C 2 16.2165 2.7835 17 3.75 17 L 17.25 17 C 18.2165 17 19 16.2165 19 15.25 L 19 6.75 C 19 5.7835 18.2165 5 17.25 5 L 3.75 5 z M 5 6.25 L 6.5 6.25 L 6.5 7.25 C 6.5 8.49264 5.49264 9.5 4.25 9.5 L 3.25 9.5 L 3.25 8 L 4.25 8 C 4.66421 8 5 7.66421 5 7.25 L 5 6.25 z M 14.5 6.25 L 16 6.25 L 16 7.25 C 16 7.66421 16.3358 8 16.75 8 L 17.75 8 L 17.75 9.5 L 16.75 9.5 C 15.5074 9.5 14.5 8.49264 14.5 7.25 L 14.5 6.25 z M 20.5 7.4003906 L 20.5 15.25 C 20.5 17.0449 19.0449 18.5 17.25 18.5 L 4.4003906 18.5 C 4.9191006 19.3967 5.88958 20 7 20 L 17.25 20 C 19.8734 20 22 17.8734 22 15.25 L 22 10 C 22 8.88958 21.3967 7.9191006 20.5 7.4003906 z M 10.5 9 C 11.7426 9 12.75 10.0074 12.75 11.25 C 12.75 12.4926 11.7426 13.5 10.5 13.5 C 9.25736 13.5 8.25 12.4926 8.25 11.25 C 8.25 10.0074 9.25736 9 10.5 9 z M 3.25 12.5 L 4.25 12.5 C 5.49264 12.5 6.5 13.5074 6.5 14.75 L 6.5 15.75 L 5 15.75 L 5 14.75 C 5 14.3358 4.66421 14 4.25 14 L 3.25 14 L 3.25 12.5 z M 16.75 12.5 L 17.75 12.5 L 17.75 14 L 16.75 14 C 16.3358 14 16 14.3358 16 14.75 L 16 15.75 L 14.5 15.75 L 14.5 14.75 C 14.5 13.5074 15.5074 12.5 16.75 12.5z"
     style="fill:#000000" />
</svg>
