<?xml version="1.0" encoding="UTF-8" standalone="no"?>
<svg
   xmlns:dc="http://purl.org/dc/elements/1.1/"
   xmlns:cc="http://creativecommons.org/ns#"
   xmlns:rdf="http://www.w3.org/1999/02/22-rdf-syntax-ns#"
   xmlns:svg="http://www.w3.org/2000/svg"
   xmlns="http://www.w3.org/2000/svg"
   width="24"
   height="24"
   viewBox="0 0 24 24"
   fill="none"
   version="1.1"
   id="svg448">
  <metadata
     id="metadata454">
    <rdf:RDF>
      <cc:Work
         rdf:about="">
        <dc:format>image/svg+xml</dc:format>
        <dc:type
           rdf:resource="http://purl.org/dc/dcmitype/StillImage" />
        <dc:title></dc:title>
      </cc:Work>
    </rdf:RDF>
  </metadata>
  <defs
     id="defs452" />
  <path
     id="path442"
     d="M12 1.5 C 10.7376 1.5 10 3.4501175 10 4.5546875 C 10 5.6592575 10.2857 7 12 7 C 13.7143 7 14 5.6592575 14 4.5546875 C 14 3.4501175 13.2624 1.5 12 1.5 z M 5.75 8 C 4.50736 8 3.5 9.00736 3.5 10.25 L 3.5 11.408203 L 7.4472656 13.927734 C 7.8592656 14.190734 8.386155 14.188728 8.796875 13.923828 L 10.558594 12.787109 C 11.431794 12.223709 12.547659 12.201616 13.443359 12.728516 L 15.482422 13.927734 C 15.917022 14.183334 16.461734 14.154162 16.865234 13.851562 L 20.5 11.125 L 20.5 10.25 C 20.5 9.00736 19.4926 8 18.25 8 L 5.75 8 z M 20.5 13 L 17.765625 15.050781 C 16.878025 15.716481 15.676903 15.783203 14.720703 15.220703 L 12.681641 14.021484 C 12.274541 13.781984 11.767994 13.792728 11.371094 14.048828 L 9.609375 15.183594 C 8.705795 15.766594 7.547025 15.770006 6.640625 15.191406 L 3.5 13.1875 L 3.5 18.5 L 2.75 18.5 C 2.33579 18.5 2 18.8358 2 19.25 C 2 19.6642 2.33579 20 2.75 20 L 21.25 20 C 21.6642 20 22 19.6642 22 19.25 C 22 18.8358 21.6642 18.5 21.25 18.5 L 20.5 18.5 L 20.5 13z"
     style="fill:#000000" />
</svg>
