<?xml version="1.0" encoding="UTF-8" standalone="no"?>
<svg
   xmlns:dc="http://purl.org/dc/elements/1.1/"
   xmlns:cc="http://creativecommons.org/ns#"
   xmlns:rdf="http://www.w3.org/1999/02/22-rdf-syntax-ns#"
   xmlns:svg="http://www.w3.org/2000/svg"
   xmlns="http://www.w3.org/2000/svg"
   width="24"
   height="24"
   viewBox="0 0 24 24"
   version="1.1"
   id="svg8">
  <defs
     id="defs2" />
  <metadata
     id="metadata5">
    <rdf:RDF>
      <cc:Work
         rdf:about="">
        <dc:format>image/svg+xml</dc:format>
        <dc:type
           rdf:resource="http://purl.org/dc/dcmitype/StillImage" />
        <dc:title></dc:title>
      </cc:Work>
    </rdf:RDF>
  </metadata>
  <g
     id="layer1">
    <path
       style="fill:#000000;stroke-width:0.264583"
       d="M103.1971,172.73099 v -7.54063 H 97.243973 91.290848 V 151.8289 138.46744 h 17.859372 17.85938 v 7.54063 7.54062 h 5.95312 5.95313 v 13.36146 13.36146 H 121.05647 103.1971 Z m 16.05267,-1.12448 -5.77393,-5.75469 -3.68032,3.83646 -3.68033,3.83646 -0.004,1.91822 -0.004,1.91823 h 9.4581 9.45809 z m 16.74274,3.83645 -0.0129,-1.91822 -2.24252,-2.37315 -2.24253,-2.37315 -2.70053,2.70052 -2.70052,2.70053 1.57425,1.59085 1.57425,1.59085 h 3.38172 3.38172 l -0.0129,-1.91823 z m -8.12759,-7.00676 3.64029,-3.63332 2.25011,2.23842 2.25011,2.23842 v -6.41031 -6.4103 h -14.94896 -14.94896 v 6.41273 6.41272 l 3.77324,-3.76651 3.77324,-3.76651 5.15391,5.159 c 2.83464,2.83744 5.21304,5.15899 5.28531,5.15899 0.0723,0 1.76955,-1.635 3.77171,-3.63333 z m -3.32786,-6.64011 c -0.24083,-0.26612 -0.43788,-0.72392 -0.43788,-1.01733 0,-0.62851 0.78109,-1.40923 1.4099,-1.40923 0.54987,0 1.50052,0.92194 1.50052,1.45521 0,0.55294 -0.95887,1.4552 -1.54649,1.4552 -0.26849,0 -0.68521,-0.21773 -0.92605,-0.48385 z m -27.160795,-0.97135 v -1.45521 h 1.455208 1.455207 v 1.45521 1.4552 h 1.45521 1.45521 v -4.36562 -4.36563 h 10.45104 10.45104 v -6.08541 -6.08542 h -1.5875 -1.5875 v 1.45521 1.45521 h -1.45521 -1.45521 v -1.45521 -1.45521 h -8.86354 -8.86354 v 1.45521 1.45521 h -1.455207 -1.455208 v -1.45521 -1.45521 h -1.5875 -1.5875 v 10.45104 10.45104 h 1.5875 1.5875 z m 0,-5.82084 v -1.45521 h 1.455208 1.455207 v 1.45521 1.45521 h -1.455207 -1.455208 z m 0,-6.08541 v -1.45521 h 1.455208 1.455207 v 1.45521 1.4552 h -1.455207 -1.455208 z m 20.637495,0 v -1.45521 h 1.45521 1.45521 v 1.45521 1.4552 h -1.45521 -1.45521z"
       id="path126" />
  </g>
</svg>
