<?xml version="1.0" encoding="UTF-8" standalone="no"?>
<svg
   xmlns:dc="http://purl.org/dc/elements/1.1/"
   xmlns:cc="http://creativecommons.org/ns#"
   xmlns:rdf="http://www.w3.org/1999/02/22-rdf-syntax-ns#"
   xmlns:svg="http://www.w3.org/2000/svg"
   xmlns="http://www.w3.org/2000/svg"
   width="210mm"
   height="297mm"
   viewBox="0 0 210 297"
   version="1.1"
   id="svg8">
  <defs
     id="defs2" />
  <metadata
     id="metadata5">
    <rdf:RDF>
      <cc:Work
         rdf:about="">
        <dc:format>image/svg+xml</dc:format>
        <dc:type
           rdf:resource="http://purl.org/dc/dcmitype/StillImage" />
        <dc:title></dc:title>
      </cc:Work>
    </rdf:RDF>
  </metadata>
  <g
     id="layer1">
    <path
       style="fill:#000000;stroke-width:0.264583"
       d="M92.846336,164.81506 c 0,-1.82844 0.01988,-1.8859 0.652639,-1.8859 0.875997,0 2.420032,-1.57849 2.777301,-2.83927 0.155415,-0.54846 0.357187,-1.6818 0.448383,-2.51854 l 0.16581,-1.52136 h -2.022066 -2.022067 v -3.96875 -3.96875 h 3.726172 3.726172 l -0.0996,5.88698 c -0.0904,5.33868 -0.15481,6.02609 -0.692064,7.38051 -1.183992,2.98487 -3.083791,4.74913 -5.536171,5.1412 l -1.124479,0.17978 z m 12.700004,0.0331 v -1.85282 l 0.81829,-0.16366 c 1.657,-0.3314 2.75672,-2.24944 3.07876,-5.36971 l 0.14573,-1.41195 h -2.02139 -2.02139 v -3.96875 -3.96875 h 3.72968 3.72968 l -0.10786,5.88698 c -0.0972,5.30707 -0.16576,6.03411 -0.69557,7.38051 -1.17196,2.97825 -3.07688,4.74878 -5.53145,5.1412 l -1.12448,0.17978z"
       id="path58" />
  </g>
</svg>
