<?xml version="1.0" encoding="UTF-8" standalone="no"?>
<svg
   xmlns:dc="http://purl.org/dc/elements/1.1/"
   xmlns:cc="http://creativecommons.org/ns#"
   xmlns:rdf="http://www.w3.org/1999/02/22-rdf-syntax-ns#"
   xmlns:svg="http://www.w3.org/2000/svg"
   xmlns="http://www.w3.org/2000/svg"
   width="24"
   height="24"
   viewBox="0 0 24 24"
   version="1.1"
   id="svg8">
  <defs
     id="defs2" />
  <metadata
     id="metadata5">
    <rdf:RDF>
      <cc:Work
         rdf:about="">
        <dc:format>image/svg+xml</dc:format>
        <dc:type
           rdf:resource="http://purl.org/dc/dcmitype/StillImage" />
        <dc:title></dc:title>
      </cc:Work>
    </rdf:RDF>
  </metadata>
  <g
     id="layer1">
    <path
       style="fill:#000000;stroke-width:0.264583"
       d="M103.267,155.57957 c 0.29096,-0.95323 0.48542,-1.76655 0.43213,-1.80739 -0.0533,-0.0408 -0.67955,-0.51107 -1.3917,-1.04497 l -1.29482,-0.97074 h 1.74415 1.74415 l 0.44543,-1.5875 c 0.24499,-0.87313 0.53311,-1.5875 0.64028,-1.5875 0.10717,0 0.3953,0.71437 0.64028,1.5875 l 0.44543,1.5875 h 1.74415 1.74415 l -1.29482,0.97074 c -0.71215,0.5339 -1.33841,1.00414 -1.3917,1.04497 -0.0533,0.0408 0.14117,0.85416 0.43213,1.80739 0.29096,0.95323 0.47366,1.73315 0.406,1.73315 -0.0677,0 -0.63157,-0.41672 -1.25313,-0.92605 -0.62156,-0.50932 -1.28418,-0.92604 -1.47249,-0.92604 -0.18831,0 -0.85092,0.41672 -1.47249,0.92604 -0.62156,0.50933 -1.18547,0.92605 -1.25313,0.92605 -0.0677,0 0.11505,-0.77992 0.406,-1.73315z"
       id="path24" />
  </g>
</svg>
