<?xml version="1.0" encoding="UTF-8" standalone="no"?>
<svg
   xmlns:dc="http://purl.org/dc/elements/1.1/"
   xmlns:cc="http://creativecommons.org/ns#"
   xmlns:rdf="http://www.w3.org/1999/02/22-rdf-syntax-ns#"
   xmlns:svg="http://www.w3.org/2000/svg"
   xmlns="http://www.w3.org/2000/svg"
   width="24"
   height="24"
   viewBox="0 0 24 24"
   fill="none"
   version="1.1"
   id="svg6">
  <metadata
     id="metadata12">
    <rdf:RDF>
      <cc:Work
         rdf:about="">
        <dc:format>image/svg+xml</dc:format>
        <dc:type
           rdf:resource="http://purl.org/dc/dcmitype/StillImage" />
        <dc:title></dc:title>
      </cc:Work>
    </rdf:RDF>
  </metadata>
  <defs
     id="defs10" />
  <path
     id="path2"
     d="M 9.5 3 C 5.35786 3 2 6.35786 2 10.5 C 2 11.6335 2.251695 12.710881 2.703125 13.675781 C 2.401005 14.900881 2.1392844 16.207606 2.0214844 16.816406 C 1.8881844 17.505406 2.4881813 18.110681 3.1757812 17.988281 C 3.7990912 17.877281 5.1538294 17.626337 6.4121094 17.335938 C 7.3547994 17.762437 8.40027 18 9.5 18 C 13.6421 18 17 14.6421 17 10.5 C 17 6.35786 13.6421 3 9.5 3 z M 9.5 6 C 10.02644 5.99997 10.637059 6.173465 11.130859 6.578125 C 11.647859 7.001755 12 7.65186 12 8.5 C 12 9.47459 11.312128 10.004434 10.923828 10.302734 C 10.893728 10.325934 10.863991 10.346687 10.837891 10.367188 C 10.413291 10.700888 10.25 10.8795 10.25 11.25 C 10.25 11.6642 9.91421 12 9.5 12 C 9.08579 12 8.75 11.6642 8.75 11.25 C 8.75 10.116 9.4617594 9.54139 9.9121094 9.1875 C 10.425409 8.78413 10.5 8.69484 10.5 8.5 C 10.5 8.10296 10.352141 7.8780013 10.181641 7.7382812 C 9.9879806 7.5796012 9.72358 7.49999 9.5 7.5 C 9.20475 7.50002 9.0025225 7.5502094 8.8515625 7.6308594 C 8.7081125 7.7074894 8.5564962 7.8414181 8.4101562 8.1113281 C 8.2127362 8.4754681 7.7567081 8.6114825 7.3925781 8.4140625 C 7.0284381 8.2166425 6.8924238 7.7606244 7.0898438 7.3964844 C 7.3535038 6.9101644 7.7029812 6.5425206 8.1445312 6.3066406 C 8.5785712 6.0747606 9.04525 6.00003 9.5 6 z M 16.953125 6.4101562 C 17.620225 7.6234662 18 9.01752 18 10.5 C 18 15.1944 14.19438 19 9.5 19 C 9.46672 19 9.4335906 19.0004 9.4003906 19 C 10.738601 20.2415 12.5306 21 14.5 21 C 15.5997 21 16.645191 20.762437 17.587891 20.335938 C 18.847791 20.626337 20.209637 20.875928 20.835938 20.986328 C 21.525237 21.107928 22.123428 20.500247 21.986328 19.810547 C 21.865428 19.202047 21.599075 17.896128 21.296875 16.673828 C 21.748275 15.708928 22 14.6335 22 13.5 C 22 10.2171 19.890425 7.4264862 16.953125 6.4101562 z M 9.5 13 C 10.05233 13 10.5 13.4476 10.5 14 C 10.5 14.5523 10.05233 15 9.5 15 C 8.94768 15 8.5 14.5523 8.5 14 C 8.5 13.4476 8.94768 13 9.5 13 z "
     style="fill:#000000" />
</svg>