<?xml version="1.0" encoding="UTF-8" standalone="no"?>
<svg
   xmlns:dc="http://purl.org/dc/elements/1.1/"
   xmlns:cc="http://creativecommons.org/ns#"
   xmlns:rdf="http://www.w3.org/1999/02/22-rdf-syntax-ns#"
   xmlns:svg="http://www.w3.org/2000/svg"
   xmlns="http://www.w3.org/2000/svg"
   xmlns:sodipodi="http://sodipodi.sourceforge.net/DTD/sodipodi-0.dtd"
   xmlns:inkscape="http://www.inkscape.org/namespaces/inkscape"
   version="1.1"
   width="24"
   height="24"
   viewBox="0 0 24 24"
   id="svg4"
   sodipodi:docname="forum.svg"
   inkscape:version="1.0.2-2 (e86c870879, 2021-01-15)">
  <metadata
     id="metadata10">
    <rdf:RDF>
      <cc:Work
         rdf:about="">
        <dc:format>image/svg+xml</dc:format>
        <dc:type
           rdf:resource="http://purl.org/dc/dcmitype/StillImage" />
      </cc:Work>
    </rdf:RDF>
  </metadata>
  <defs
     id="defs8" />
  <sodipodi:namedview
     pagecolor="#ffffff"
     bordercolor="#666666"
     borderopacity="1"
     objecttolerance="10"
     gridtolerance="10"
     guidetolerance="10"
     inkscape:pageopacity="0"
     inkscape:pageshadow="2"
     inkscape:window-width="1920"
     inkscape:window-height="1017"
     id="namedview6"
     showgrid="true"
     inkscape:zoom="14.083333"
     inkscape:cx="12"
     inkscape:cy="12"
     inkscape:window-x="-8"
     inkscape:window-y="-8"
     inkscape:window-maximized="1"
     inkscape:current-layer="svg4">
    <inkscape:grid
       type="xygrid"
       id="grid874" />
  </sodipodi:namedview>
  <path
     id="path878"
     d="M 3,2 A 1,1 0 0 0 2,3 v 14 l 4,-4 h 10 a 1,1 0 0 0 1,-1 V 3 A 1,1 0 0 0 16,2 Z m 7.099609,1.25 c 0.899999,0 1.701172,0.1996094 2.201172,0.5996094 0.5,0.4 0.798827,0.9992188 0.798828,1.6992186 0.1,0.4000002 0.0012,0.801172 -0.298828,1.201172 -0.3,0.399999 -0.701562,0.5988282 -1.101562,0.798828 -0.3,0.2 -0.4,0.3000002 -0.5,0.5 C 10.999219,8.2488282 11,8.45 11,8.75 H 9 c 0,-0.5 0.1007812,-0.7996094 0.3007812,-1.0996094 0.2000001,-0.2 0.5996094,-0.5007824 1.0996098,-0.8007812 0.3,-0.1 0.499609,-0.3 0.599609,-0.5 0.1,-0.2000002 0.199219,-0.4992188 0.199219,-0.6992188 0,-0.3 -0.09883,-0.5011718 -0.298828,-0.7011718 -0.2,-0.2000002 -0.500784,-0.2988282 -0.800782,-0.2988282 -0.2999996,0 -0.4992184,0.099219 -0.6992184,0.1992188 -0.2,0.1 -0.3007822,0.2996094 -0.3007812,0.5996094 h -2 C 7.1996094,4.7492188 7.5,4.15 8,3.75 8.5,3.35 9.1996074,3.25 10.099609,3.25 Z M 19,6 v 9 H 6 v 2 a 1,1 0 0 0 1,1 h 11 l 4,4 V 7 A 1,1 0 0 0 21,6 Z M 9,9.75 h 2 v 2 H 9 Z"
     style="stroke-width:1" />
</svg>
